<svg xmlns="http://www.w3.org/2000/svg" width="1200" height="800" viewBox="0 0 1200 800">
  <rect width="1200" height="800" fill="#ffffff"/>
  <rect x="40" y="40" width="1120" height="720" fill="#0b0b0b"/>
  <rect x="60" y="60" width="1080" height="680" fill="#ffffff"/>
  <path d="M160 610 C260 430, 420 520, 520 410 C640 280, 760 320, 860 240 C960 170, 1040 190, 1080 160" fill="none" stroke="#0b0b0b" stroke-width="14"/>
  <path d="M160 650 C260 470, 420 560, 520 450 C640 320, 760 360, 860 280 C960 210, 1040 230, 1080 200" fill="none" stroke="#9dff52" stroke-width="10"/>
  <circle cx="160" cy="610" r="18" fill="#9dff52"/>
  <circle cx="520" cy="410" r="18" fill="#9dff52"/>
  <circle cx="860" cy="240" r="18" fill="#9dff52"/>
  <rect x="140" y="140" width="420" height="260" fill="#ffffff" stroke="#0b0b0b" stroke-width="10"/>
  <rect x="180" y="180" width="340" height="22" fill="#0b0b0b"/>
  <rect x="180" y="220" width="280" height="14" fill="#0b0b0b" opacity="0.5"/>
  <rect x="180" y="252" width="320" height="14" fill="#0b0b0b" opacity="0.5"/>
  <rect x="180" y="284" width="220" height="14" fill="#0b0b0b" opacity="0.5"/>
  <rect x="640" y="420" width="420" height="260" fill="#ffffff" stroke="#0b0b0b" stroke-width="10"/>
  <circle cx="720" cy="500" r="44" fill="#0b0b0b"/>
  <rect x="790" y="470" width="240" height="22" fill="#0b0b0b"/>
  <rect x="790" y="510" width="200" height="14" fill="#0b0b0b" opacity="0.5"/>
  <rect x="790" y="542" width="260" height="14" fill="#0b0b0b" opacity="0.5"/>
</svg>
