<svg xmlns="http://www.w3.org/2000/svg" width="1200" height="800" viewBox="0 0 1200 800">
  <rect width="1200" height="800" fill="#ffffff"/>
  <rect x="40" y="40" width="1120" height="720" fill="#0b0b0b"/>
  <rect x="60" y="60" width="1080" height="680" fill="#ffffff"/>
  <circle cx="240" cy="220" r="140" fill="#9dff52"/>
  <circle cx="920" cy="620" r="180" fill="#9dff52"/>
  <path d="M120 600 C220 500, 340 520, 420 440 C520 340, 680 340, 760 420 C850 510, 970 470, 1080 360" fill="none" stroke="#0b0b0b" stroke-width="14"/>
  <path d="M150 620 C260 520, 360 560, 460 470 C560 380, 700 380, 790 450 C890 530, 990 500, 1110 390" fill="none" stroke="#9dff52" stroke-width="10"/>
  <rect x="140" y="300" width="320" height="220" fill="#ffffff" stroke="#0b0b0b" stroke-width="10"/>
  <rect x="170" y="330" width="260" height="18" fill="#0b0b0b"/>
  <rect x="170" y="370" width="210" height="14" fill="#0b0b0b" opacity="0.5"/>
  <rect x="170" y="404" width="240" height="14" fill="#0b0b0b" opacity="0.5"/>
  <rect x="170" y="438" width="160" height="14" fill="#0b0b0b" opacity="0.5"/>
  <rect x="620" y="160" width="440" height="320" fill="#ffffff" stroke="#0b0b0b" stroke-width="10"/>
  <circle cx="700" cy="250" r="44" fill="#0b0b0b"/>
  <rect x="760" y="220" width="260" height="22" fill="#0b0b0b"/>
  <rect x="760" y="262" width="200" height="14" fill="#0b0b0b" opacity="0.5"/>
  <rect x="760" y="296" width="240" height="14" fill="#0b0b0b" opacity="0.5"/>
  <rect x="760" y="330" width="160" height="14" fill="#0b0b0b" opacity="0.5"/>
</svg>
